<?xml version="1.0" standalone="no"?>
<!DOCTYPE svg PUBLIC "-//W3C//DTD SVG 20010904//EN"
 "http://www.w3.org/TR/2001/REC-SVG-20010904/DTD/svg10.dtd">
<svg version="1.0" xmlns="http://www.w3.org/2000/svg"
 width="666.000000pt" height="375.000000pt" viewBox="0 0 666.000000 375.000000"
 preserveAspectRatio="xMidYMid meet">

<g transform="translate(0.000000,375.000000) scale(0.100000,-0.100000)"
fill="#000000" stroke="none">
<path d="M0 3661 c0 -159 56 -378 132 -521 49 -90 156 -252 249 -375 97 -127
157 -161 304 -172 176 -12 395 28 970 177 215 56 475 123 579 150 450 117 824
171 1041 150 146 -13 263 -48 293 -87 12 -17 14 -96 3 -148 l-6 -30 -175 3
c-172 3 -298 -10 -560 -59 -141 -26 -664 -153 -800 -194 -83 -25 -513 -133
-650 -163 -209 -46 -294 -57 -445 -57 -168 0 -216 13 -293 81 -28 25 -52 43
-52 40 0 -3 25 -41 55 -83 30 -43 71 -103 92 -133 105 -153 170 -183 388 -183
206 0 333 26 1140 234 533 136 675 171 770 189 70 13 332 50 352 50 17 0 -46
-64 -184 -187 -191 -172 -180 -166 -439 -232 -126 -32 -326 -84 -444 -116
-684 -183 -974 -231 -1152 -194 -60 13 -118 40 -138 64 -7 9 -27 26 -44 38
-27 19 -25 15 19 -48 74 -104 170 -227 197 -252 12 -12 48 -33 79 -48 147 -67
429 -35 993 111 137 35 250 63 252 61 2 -2 -15 -41 -39 -86 -40 -80 -42 -87
-42 -175 0 -110 9 -130 152 -333 53 -76 107 -154 120 -173 236 -347 679 -604
1264 -735 139 -31 333 -65 375 -65 21 0 49 13 83 38 28 20 114 80 190 132
l139 95 -201 12 c-212 12 -375 30 -567 64 -116 20 -304 65 -327 77 -7 5 14 29
60 67 76 64 84 71 217 187 47 40 132 114 190 163 154 132 265 247 320 331 109
167 130 315 64 447 -49 97 -187 311 -170 263 50 -143 23 -301 -77 -445 -92
-132 -282 -312 -592 -561 -44 -35 -142 -125 -217 -198 l-137 -135 -125 64
c-69 35 -126 70 -126 77 0 28 112 181 192 261 46 46 189 172 318 280 466 388
600 559 600 764 0 116 -30 188 -145 352 -39 56 -54 71 -48 50 4 -16 8 -76 8
-131 0 -100 -1 -103 -43 -186 -50 -98 -142 -218 -236 -306 -36 -33 -177 -155
-313 -269 -277 -233 -387 -338 -454 -433 -43 -61 -80 -141 -95 -203 -3 -15
-10 -27 -15 -25 -14 5 -138 127 -155 153 -21 32 -21 139 0 203 10 28 34 77 55
109 77 119 142 181 516 498 337 285 455 414 526 575 34 78 35 230 1 308 -47
109 -235 375 -300 425 -146 111 -375 142 -722 97 -307 -40 -309 -41 -1305
-298 -349 -91 -504 -127 -511 -120 -12 12 56 658 82 781 l6 27 -111 0 c-82 0
-111 -3 -111 -12 0 -7 -9 -83 -20 -169 -10 -86 -24 -268 -31 -405 -6 -137 -12
-250 -13 -250 -1 -1 -37 -4 -81 -5 l-80 -4 -8 80 c-8 83 -2 551 9 688 l7 77
-100 0 -101 0 -6 -142 c-8 -166 4 -362 34 -548 12 -73 20 -133 18 -136 -10
-10 -95 44 -114 72 -54 83 -124 467 -124 685 l0 69 -105 0 -105 0 0 -89z"/>
<path d="M2972 585 c180 -269 296 -397 474 -521 l92 -64 228 0 229 1 -160 54
c-346 119 -635 295 -831 508 -61 67 -63 69 -32 22z"/>
<path d="M3345 42 c15 -23 35 -42 44 -42 13 0 13 3 -4 18 -11 9 -31 28 -44 42
-21 22 -20 20 4 -18z"/>
</g>
</svg>
